<svg width="23" height="22" viewBox="0 0 23 22" fill="none" xmlns="http://www.w3.org/2000/svg">
    <path
        d="M6.41 2.872c.755-.339 1.45.467 1.28 1.277A9 9 0 0 0 18.35 14.81c.81-.17 1.616.525 1.277 1.28A10.001 10.001 0 0 1 10.5 22c-5.523 0-10-4.477-10-10 0-4.066 2.426-7.565 5.91-9.128Zm10.254-.581.35.088a.64.64 0 0 1 0 1.243l-.35.087a2 2 0 0 0-1.455 1.455l-.088.35a.64.64 0 0 1-1.243 0l-.087-.35a2 2 0 0 0-1.455-1.455l-.35-.088a.64.64 0 0 1 0-1.243l.35-.087A2 2 0 0 0 13.79.836l.088-.351a.64.64 0 0 1 1.243 0l.088.351a2 2 0 0 0 1.455 1.455Zm5 5 .35.088a.64.64 0 0 1 0 1.243l-.35.087a2 2 0 0 0-1.455 1.455l-.088.35a.64.64 0 0 1-1.243 0l-.087-.35a2 2 0 0 0-1.455-1.455l-.35-.088a.64.64 0 0 1 0-1.243l.35-.087a2 2 0 0 0 1.455-1.455l.088-.35a.64.64 0 0 1 1.243 0l.087.35a2 2 0 0 0 1.455 1.455Z"
        fill="#f9f9f9" />
</svg>